<svg width="44" height="44" fill="none" xmlns="http://www.w3.org/2000/svg"><rect width="44" height="44" rx="22" fill="#fff" fill-opacity=".75"/><path d="M12.95 23h16.182l-5.922 7.785a.537.537 0 00-.083.164.647.647 0 000 .387.528.528 0 00.083.164.397.397 0 00.125.11.306.306 0 00.294 0 .398.398 0 00.124-.11l6.565-8.645a.459.459 0 00.064-.115l.02-.05.01-.05a.274.274 0 000-.043.657.657 0 000-.195.274.274 0 000-.042l-.01-.05-.02-.05a.45.45 0 00-.065-.115L23.754 13.5a.394.394 0 00-.124-.111.302.302 0 00-.295 0 .393.393 0 00-.124.11.529.529 0 00-.082.163.64.64 0 000 .383.53.53 0 00.082.162L29.132 22H12.95a.34.34 0 00-.269.146.59.59 0 00-.111.354c0 .133.04.26.111.353a.34.34 0 00.269.147z" fill="#000"/></svg>