<svg width="44" height="44" fill="none" xmlns="http://www.w3.org/2000/svg"><rect width="44" height="44" rx="22" fill="#fff" fill-opacity=".75"/><path d="M30.05 22H13.868l5.922-7.785a.537.537 0 00.083-.164.647.647 0 000-.387.538.538 0 00-.083-.164.397.397 0 00-.125-.11.306.306 0 00-.294 0 .397.397 0 00-.124.11l-6.565 8.645a.452.452 0 00-.065.115l-.019.05-.01.05a.274.274 0 000 .043.657.657 0 000 .195.274.274 0 000 .042l.01.05.02.05a.445.445 0 00.065.115l6.564 8.645a.394.394 0 00.124.111c.047.026.097.04.147.04.05 0 .101-.014.148-.04a.394.394 0 00.124-.11.531.531 0 00.082-.163.64.64 0 000-.383.533.533 0 00-.082-.162L13.868 23H30.05c.1 0 .197-.052.269-.146a.59.59 0 00.111-.354c0-.133-.04-.26-.111-.353A.341.341 0 0030.05 22z" fill="#000"/></svg>