<svg width="38" height="24" fill="none" xmlns="http://www.w3.org/2000/svg"><path d="M35 0H3a3 3 0 00-3 3v18a3 3 0 003 3h32a3 3 0 003-3V3a3 3 0 00-3-3z" fill="#000" fill-opacity=".07"/><path fill-rule="evenodd" clip-rule="evenodd" d="M35 1c1.1 0 2 .9 2 2v18c0 1.1-.9 2-2 2H3c-1.1 0-2-.9-2-2V3c0-1.1.9-2 2-2h32z" fill="#3D95CE"/><path d="M24.675 8.36c0 3.064-2.557 7.045-4.633 9.84h-4.74L13.4 6.57l4.151-.402 1.005 8.275c.94-1.566 2.099-4.025 2.099-5.702 0-.918-.154-1.543-.394-2.058l3.78-.783c.437.738.634 1.499.634 2.46z" fill="#fff"/></svg>